<?xml version="1.0" standalone="no"?>
<!DOCTYPE svg PUBLIC "-//W3C//DTD SVG 20010904//EN"
 "http://www.w3.org/TR/2001/REC-SVG-20010904/DTD/svg10.dtd">
<svg version="1.0" xmlns="http://www.w3.org/2000/svg"
 width="357.000000pt" height="230.000000pt" viewBox="0 0 357.000000 230.000000"
 preserveAspectRatio="xMidYMid meet">

<g transform="translate(0.000000,230.000000) scale(0.100000,-0.100000)"
fill="#000000" stroke="none">
<path d="M183 2195 c-32 -16 -61 -41 -79 -67 l-29 -41 -3 -589 -3 -588 1711 0
1710 0 0 655 0 655 -1628 0 -1628 0 -51 -25z m1732 -315 c4 -6 -7 -15 -24 -21
-39 -14 -43 -46 -6 -51 35 -4 36 -22 3 -26 -28 -3 -28 -4 -28 -82 0 -47 -4
-82 -11 -86 -19 -12 -29 18 -29 92 0 58 -3 73 -17 78 -14 6 -14 9 5 27 12 11
22 25 22 31 0 34 69 65 85 38z m-1320 -25 c23 -22 25 -32 25 -108 0 -117 -12
-132 -108 -132 -102 0 -112 11 -112 132 0 120 10 133 105 133 57 0 69 -3 90
-25z m883 -107 c-4 -175 -22 -173 -26 2 -2 112 0 130 13 130 13 0 15 -18 13
-132z m1692 -208 l0 -300 -25 0 -25 0 0 282 c0 248 2 284 17 300 9 10 20 18
25 18 4 0 8 -135 8 -300z m-2315 256 c16 -12 20 -26 20 -80 0 -84 -13 -98 -94
-104 l-60 -4 -3 -37 c-2 -20 -7 -35 -13 -34 -6 2 -11 58 -13 136 l-3 133 74 2
c50 2 79 -2 92 -12z m247 -3 c11 -10 18 -30 18 -55 l0 -38 -76 0 c-72 0 -75
-1 -72 -22 3 -20 10 -23 54 -26 36 -2 54 1 64 13 18 22 32 19 28 -7 -4 -32
-44 -50 -100 -45 -68 6 -78 18 -78 95 0 86 14 102 88 102 38 0 61 -5 74 -17z
m252 -2 c31 -35 34 -189 3 -178 -7 2 -14 33 -17 83 -5 78 -5 79 -34 82 -15 2
-39 1 -52 -2 -22 -6 -24 -11 -24 -74 0 -70 -10 -99 -29 -88 -7 5 -11 43 -11
99 l0 93 73 2 c62 2 77 -1 91 -17z m368 3 c15 -14 18 -32 18 -101 0 -63 -3
-84 -12 -81 -8 3 -14 30 -16 73 -2 38 -8 75 -14 82 -13 16 -80 17 -96 1 -7 -7
-12 -42 -12 -86 0 -54 -3 -73 -12 -70 -9 3 -14 35 -16 100 l-3 94 72 2 c55 2
76 -2 91 -14z m278 6 c0 -7 6 -7 19 0 11 5 32 10 46 10 34 0 28 -24 -7 -28
-41 -5 -57 -31 -60 -101 -2 -40 -8 -66 -15 -69 -10 -3 -13 21 -13 97 0 83 3
101 15 101 8 0 15 -5 15 -10z m275 -4 c16 -11 20 -30 23 -91 4 -78 -6 -111
-28 -89 -8 8 -23 8 -50 1 -72 -20 -126 32 -98 91 14 28 41 39 101 41 53 1 43
25 -12 29 -29 2 -49 -2 -60 -12 -29 -26 -43 1 -15 28 20 20 113 21 139 2z
m508 -248 c-221 -221 -234 -232 -250 -215 -17 16 -8 27 172 207 l190 190 -188
0 -187 0 0 25 0 25 247 0 248 0 -232 -232z m277 -63 l0 -245 -25 0 -25 0 0
185 c0 102 -3 185 -7 185 -4 0 -90 -82 -190 -182 -174 -173 -184 -182 -200
-165 -17 16 -6 28 207 242 124 124 228 225 232 225 5 0 8 -110 8 -245z m-2638
-150 l3 -70 45 0 45 0 5 75 c6 96 25 90 25 -8 0 -54 -4 -75 -15 -82 -21 -14
-104 -12 -118 2 -7 7 -12 43 -12 92 0 99 18 92 22 -9z m309 75 c20 -11 27 -40
9 -40 -5 0 -10 5 -10 10 0 6 -18 10 -40 10 -36 0 -40 -2 -40 -25 0 -22 4 -25
36 -25 50 0 74 -15 74 -48 0 -16 -5 -33 -12 -40 -18 -18 -103 -15 -118 3 -16
19 -5 34 12 17 18 -18 87 -15 94 3 10 25 -15 44 -59 47 -40 3 -42 5 -45 38 -5
52 46 78 99 50z m219 -5 c0 -11 -12 -15 -45 -15 -41 0 -45 -2 -45 -25 0 -21 5
-25 30 -25 17 0 30 -4 30 -10 0 -5 -13 -10 -30 -10 -27 0 -30 -3 -30 -30 0
-29 2 -30 45 -30 25 0 45 -5 45 -10 0 -7 -22 -10 -57 -8 l-58 3 -3 74 c-2 41
-1 80 2 88 8 20 116 18 116 -2z m182 -2 c24 -21 23 -69 -1 -85 -18 -11 -18
-12 1 -44 11 -19 15 -35 9 -38 -5 -4 -20 12 -32 34 -29 52 -59 55 -59 5 0 -19
-4 -35 -10 -35 -6 0 -10 37 -10 90 l0 90 42 0 c24 0 49 -7 60 -17z m318 -3
c12 -12 18 -26 14 -32 -5 -7 -11 -6 -19 5 -8 11 -27 17 -53 17 -44 0 -52 -10
-52 -65 0 -56 8 -65 56 -65 34 0 44 4 44 16 0 9 -8 23 -17 30 -17 12 -17 13 0
19 40 16 61 -21 37 -66 -9 -15 -22 -19 -65 -19 -65 0 -75 12 -75 89 0 38 5 56
20 71 27 27 83 27 110 0z m194 4 c21 -20 20 -63 0 -85 -15 -17 -15 -20 0 -43
19 -30 20 -36 3 -36 -7 0 -21 16 -31 35 -11 21 -27 35 -38 35 -14 0 -18 -8
-18 -35 0 -19 -4 -35 -10 -35 -6 0 -10 37 -10 90 l0 90 44 0 c27 0 51 -6 60
-16z m220 -4 c16 -16 14 -123 -3 -143 -17 -21 -103 -23 -120 -4 -32 39 -24
142 12 157 27 12 95 6 111 -10z m111 -117 c5 -20 12 -23 49 -23 52 0 56 7 56
96 0 41 4 63 10 59 13 -8 13 -131 0 -156 -9 -15 -22 -19 -63 -19 -29 0 -58 5
-65 12 -13 13 -17 150 -4 162 4 4 8 -18 10 -51 1 -32 4 -68 7 -80z m305 117
c40 -40 18 -90 -40 -90 -39 0 -40 -1 -40 -35 0 -24 -5 -35 -15 -35 -12 0 -15
16 -15 83 0 46 3 87 7 90 15 15 83 7 103 -13z"/>
<path d="M448 1839 c-15 -8 -18 -24 -18 -84 0 -104 1 -105 76 -105 77 0 84 9
84 104 0 80 -13 96 -78 96 -26 0 -55 -5 -64 -11z"/>
<path d="M732 1768 c-6 -6 -12 -36 -12 -65 l0 -54 58 3 57 3 0 60 0 60 -45 3
c-26 2 -50 -2 -58 -10z"/>
<path d="M983 1773 c-7 -2 -13 -13 -13 -24 0 -17 8 -19 60 -19 61 0 75 11 48
38 -12 12 -71 15 -95 5z"/>
<path d="M2157 1703 c-4 -3 -7 -17 -7 -30 0 -23 3 -24 53 -21 48 3 52 5 55 31
3 26 2 27 -46 27 -27 0 -52 -3 -55 -7z"/>
<path d="M1050 1360 c0 -30 2 -31 38 -28 32 3 37 6 37 28 0 22 -5 25 -37 28
-36 3 -38 2 -38 -28z"/>
<path d="M1560 1360 c0 -30 2 -31 38 -28 32 3 37 6 37 28 0 22 -5 25 -37 28
-36 3 -38 2 -38 -28z"/>
<path d="M1752 1328 l3 -63 45 0 45 0 0 60 0 60 -48 3 -48 3 3 -63z"/>
<path d="M2200 1359 c0 -28 2 -30 33 -27 27 2 33 8 35 31 3 25 1 27 -32 27
-33 0 -36 -2 -36 -31z"/>
<path d="M70 557 l0 -303 26 -52 c19 -39 38 -59 72 -80 l47 -27 1565 0 c1563
0 1565 0 1604 21 22 11 54 37 70 58 l31 38 3 324 3 324 -1711 0 -1710 0 0
-303z m1320 -4 l1 -58 32 39 c18 22 39 48 47 59 10 12 25 18 44 15 l29 -3 -46
-56 -46 -56 45 -66 c24 -37 44 -69 44 -72 0 -3 -13 -5 -29 -5 -24 0 -35 9 -61
50 -26 40 -35 48 -46 39 -8 -6 -14 -29 -14 -50 0 -35 -3 -39 -25 -39 l-25 0 0
130 0 130 25 0 c24 0 25 -3 25 -57z m295 -19 c21 -8 45 -56 45 -89 0 -33 -24
-81 -45 -89 -38 -14 -86 -6 -112 20 -22 22 -25 32 -20 77 3 37 11 56 27 69 22
18 73 24 105 12z m125 -6 c0 -9 3 -9 12 0 18 18 48 15 48 -6 0 -10 -12 -22
-30 -29 -29 -11 -30 -13 -30 -77 0 -64 -1 -66 -25 -66 -25 0 -25 0 -25 95 0
95 0 95 25 95 14 0 25 -5 25 -12z m217 -10 c11 -13 23 -38 26 -55 l7 -33 -66
0 c-62 0 -64 -1 -54 -20 12 -22 58 -28 76 -10 8 8 15 6 24 -5 11 -13 10 -18
-6 -30 -23 -18 -93 -19 -115 -2 -45 35 -51 101 -13 146 33 39 89 43 121 9z
m193 2 c16 -16 20 -33 20 -94 l0 -74 -69 0 c-76 -1 -93 9 -93 55 0 32 24 51
74 60 41 6 46 14 24 32 -14 12 -46 5 -46 -10 0 -5 -11 -9 -25 -9 -31 0 -33 23
-3 44 32 23 94 20 118 -4z"/>
<path d="M1612 488 c-13 -13 -16 -56 -6 -82 10 -26 53 -20 66 9 23 51 -24 109
-60 73z"/>
<path d="M1947 494 c-17 -17 -5 -34 24 -34 24 0 30 4 27 18 -3 17 -38 29 -51
16z"/>
<path d="M2143 433 c-17 -6 -16 -40 1 -46 21 -8 50 17 43 37 -6 16 -21 19 -44
9z"/>
</g>
</svg>
